<svg xmlns="http://www.w3.org/2000/svg" version="1.1" xmlns:xlink="http://www.w3.org/1999/xlink" xmlns:svgjs="http://svgjs.dev/svgjs" width="128" height="128" viewBox="0 0 128 128"><g transform="matrix(0.5421052631578948,0,0,0.5421052631578948,29.11769473684209,12.760752631578946)"><svg viewBox="0 0 64 95" data-background-color="#ffffff" preserveAspectRatio="xMidYMid meet" height="190" width="128" xmlns="http://www.w3.org/2000/svg" xmlns:xlink="http://www.w3.org/1999/xlink"><g id="tight-bounds" transform="matrix(1,0,0,1,0.17300000000000182,-0.24049999999999727)"><svg viewBox="0 0 63.653999999999996 95.481" height="95.481" width="63.653999999999996"><g><svg viewBox="0 0 63.653999999999996 95.481" height="95.481" width="63.653999999999996"><g><svg viewBox="0 0 63.653999999999996 95.481" height="95.481" width="63.653999999999996"><g id="textblocktransform"><svg viewBox="0 0 63.653999999999996 95.481" height="95.481" width="63.653999999999996" id="textblock"><g><svg viewBox="0 0 63.653999999999996 95.481" height="95.481" width="63.653999999999996"><g><svg viewBox="0 0 63.653999999999996 95.481" height="95.481" width="63.653999999999996"><g><svg xmlns="http://www.w3.org/2000/svg" xmlns:xlink="http://www.w3.org/1999/xlink" version="1.1" x="0" y="0" viewBox="175.5 170.75 103.5 155.25" enable-background="new 0 0 500 500" xml:space="preserve" height="95.481" width="63.653999999999996" class="icon-icon-0" data-fill-palette-color="accent" id="icon-0"></svg></g></svg></g></svg></g></svg></g></svg></g></svg></g><defs></defs><mask id="a4c26de0-bc64-4b39-b7a1-78a14623b5a5"><g id="SvgjsG6232"><svg viewBox="0 0 63.653999999999996 95.481" height="95.481" width="63.653999999999996"><g><svg viewBox="0 0 63.653999999999996 95.481" height="95.481" width="63.653999999999996"><g><svg viewBox="0 0 63.653999999999996 95.481" height="95.481" width="63.653999999999996"><g id="SvgjsG6231"><svg viewBox="0 0 63.653999999999996 95.481" height="95.481" width="63.653999999999996" id="SvgjsSvg6230"><g><svg viewBox="0 0 63.653999999999996 95.481" height="95.481" width="63.653999999999996"><g><svg viewBox="0 0 63.653999999999996 95.481" height="95.481" width="63.653999999999996"><g><svg xmlns="http://www.w3.org/2000/svg" xmlns:xlink="http://www.w3.org/1999/xlink" version="1.1" x="0" y="0" viewBox="175.5 170.75 103.5 155.25" enable-background="new 0 0 500 500" xml:space="preserve" height="95.481" width="63.653999999999996" class="icon-icon-0" data-fill-palette-color="accent" id="SvgjsSvg6229"><g fill="white"><path d="M229.5 253C229.5 251.5 228.5 250.5 227 250.5 217 250.5 207.5 233.5 205 227 205 226.5 204.5 226 204.5 226 203.5 225 202 225 201 226L200 227C197.5 233.5 188 250.5 178 250.5 176.5 250.5 175.5 251.5 175.5 253S176.5 255.5 178 255.5C188 255.5 197.5 272.5 200 279 200 279.5 200.5 279.5 200.5 280 201 280.5 201.5 280.5 202 280.5S203.5 280.5 204 280L205 279C207.5 272.5 217 255.5 227 255.5 228.5 255.5 229.5 254.5 229.5 253M202 273C199 267.5 193.5 258 186 253 193.5 248.5 199.5 239 202.5 233 205.5 238.5 211 248 218.5 253 211 257.5 205 267 202 273" fill="white"></path><path d="M225 201C235 201 244.5 218 247 224.5 247 225 247.5 225 247.5 225.5 248 226 248.5 226 249 226S250.5 226 251 225.5L252 224.5C254.5 218 264 201 274 201 275.5 201 276.5 200 276.5 198.5S275.5 196 274 196C264 196 254.5 179 252 172.5 252 172 251.5 171.5 251.5 171.5 250.5 170.5 249 170.5 248 171.5L247 172.5C244.5 179 235 196 225 196 223.5 196 222.5 197 222.5 198.5S224 201 225 201M250 179C253 184.5 258.5 194 266 199 258.5 203.5 252.5 213 249.5 219 246.5 213.5 241 204 233.5 199 241.5 194 247 184.5 250 179" fill="white"></path><path d="M276.5 296.5C266.5 296.5 257 279.5 254.5 273 254.5 272.5 254 272 254 272 253 271 251.5 271 250.5 272L249.5 273C247 279.5 237.5 296.5 227.5 296.5 226 296.5 225 297.5 225 299S226 301.5 227.5 301.5C237.5 301.5 247 318.5 249.5 325 249.5 325.5 250 325.5 250 325.5 250.5 326 251 326 251.5 326S253 326 253.5 325.5L254.5 324.5C257 318 266.5 301 276.5 301 278 301 279 300 279 298.5S278 296.5 276.5 296.5M252 319C249 313.5 243.5 304 236 299 243.5 294.5 249.5 285 252.5 279 255.5 284.5 261 294 268.5 299 260.5 303.5 255 313 252 319" fill="white"></path></g></svg></g></svg></g></svg></g></svg></g></svg></g></svg></g><defs><mask></mask></defs></svg><rect width="63.653999999999996" height="95.481" fill="black" stroke="none" visibility="hidden"></rect></g></mask><linearGradient x1="0" x2="1" y1="0.578" y2="0.595" id="f9568f31-c9d7-40c2-b6d2-3a6a6bb43c1e"><stop stop-color="#6ee2f5" offset="0"></stop><stop stop-color="#6454f0" offset="1"></stop></linearGradient><rect width="63.653999999999996" height="95.481" fill="url(#f9568f31-c9d7-40c2-b6d2-3a6a6bb43c1e)" mask="url(#a4c26de0-bc64-4b39-b7a1-78a14623b5a5)" data-fill-palette-color="accent"></rect></svg><rect width="63.653999999999996" height="95.481" fill="none" stroke="none" visibility="hidden"></rect></g></svg></g></svg>